<?xml version="1.0" encoding="UTF-8"?>
<svg width="600px" height="181px" viewBox="0 0 600 181" version="1.1" xmlns="http://www.w3.org/2000/svg" xmlns:xlink="http://www.w3.org/1999/xlink">
    <!-- Generator: Sketch 52.4 (67378) - http://www.bohemiancoding.com/sketch -->
    <title>Group</title>
    <desc>Created with Sketch.</desc>
    <g id="Page-1" stroke="none" stroke-width="1" fill="none" fill-rule="evenodd">
        <g id="Group">
            <g id="duckling">
                <path d="M134.128993,97.4260204 C130.43142,90.1010612 124.927625,83.3227959 116.781119,78.5170612 C115.926125,78.0146939 115.689243,76.9065306 116.325863,76.1492857 C120.456485,71.2290408 133.607114,54.4736122 133.607114,40.6326531 C133.607114,18.1923469 115.378336,0 92.893093,0 C70.4078497,0 52.1790722,18.1923469 52.1790722,40.6326531 C52.1790722,62.7959184 70.7150555,74.0548571 73.916658,77.1281633 C74.2349677,77.4310612 74.3978237,77.8152245 74.3904212,78.2547959 C74.3460059,82.0040816 73.1245853,99.6571224 53.91497,92.974898 C48.7405881,91.1759796 44.143605,88.0214082 40.2720718,84.1576122 L18.2716955,62.204898 C16.5357977,60.4724694 13.6858162,60.694102 12.2238128,62.6666327 C7.28631244,69.3266939 -1.92616008,85.0219796 0.357526357,107.122449 C0.357526357,107.122449 1.71219287,166.915245 43.307117,179.204776 C47.781958,180.527184 52.4640704,181 57.1276764,181 L82.5110177,181 C93.0744555,181 103.404713,177.937776 112.221149,172.127306 C112.528355,171.924143 112.835561,171.72098 113.146468,171.514122 C137.441634,155.205653 147.305531,123.519571 134.128993,97.4260204 Z" id="Path" fill="#F6C346"></path>
                <path d="M173.105947,37 L142.594597,37 L133.912656,37 C134.024202,38.2375 134.098565,39.4825 134.098565,40.75 C134.098565,49.56625 128.900556,59.54125 124,66.98875 L124,67 L145.82941,67 C149.27244,67 152.722907,66.1825 155.615648,64.29625 C165.163923,58.07875 172.102039,45.30625 174.805153,39.71875 C175.42237,38.45875 174.496544,37 173.105947,37 Z" id="Path" fill="#D77328"></path>
                <circle id="Oval" fill="#FFFFFF" cx="101" cy="33" r="15"></circle>
                <circle id="Oval" fill="#2C2F38" cx="107.5" cy="36.5" r="7.5"></circle>
                <path d="M73.2010009,110.267645 C98.0108603,97.6928371 101,125.465736 101,125.465736 C101,157.704111 75.1679286,154.940822 75.1679286,154.940822 C53.2217389,154.940822 42.2025153,131.843408 39.1580212,124.201992 C38.6487603,122.927195 39.4200322,121.523444 40.7596096,121.225008 L42.1508511,120.91552 C52.8711608,118.539091 63.4143362,115.226829 73.2010009,110.267645 Z" id="Path" fill="#D77328"></path>
            </g>
            <path d="M206,71 L216.074627,14 L234.61194,14 C248.232836,14 260,21.6267606 260,39.2887324 C260,55.5056338 250.00597,71 227.035821,71 L206,71 Z M218,63 L227.29199,63 C244.033592,63 249,50.3287402 249,39.5944882 C249,26.519685 241.550388,22 234.421189,22 L225.209302,22 L218,63 Z M278.096774,72 C272.370968,72 266,69.5175781 266,59.9882812 C266,58.1464844 266.16129,56.3046875 266.483871,54.1425781 L270.596774,31 L280.274194,31 L276.241935,53.6621094 C276,55.1835938 275.83871,56.3046875 275.83871,57.5859375 C275.83871,62.8710937 279.387097,64.2324219 282.612903,64.2324219 C289.629032,64.2324219 291.564516,57.5859375 292.612903,51.7402344 L296.241935,31 L306,31 L298.822581,71.0390625 L289.629032,71.0390625 L291.080645,63.3515625 C288.983871,68.3164062 284.951613,72 278.096774,72 Z M330.338809,72 C322.010267,72 312,68.1526718 312,53.9656489 C312,43.4656489 317.445585,30 333.782341,30 C342.831622,30 350.679671,34.1679389 351,44.4274809 L341.710472,45.9503817 C341.470226,39.4580153 337.626283,37.5343511 333.622177,37.5343511 C324.652977,37.5343511 322.010267,46.9923664 322.010267,53.8854962 C322.010267,62.0610687 326.494867,64.3854962 330.73922,64.3854962 C336.024641,64.3854962 338.827515,60.6183206 339.868583,55.8091603 L348.837782,57.5725191 C346.835729,66.0687023 340.829569,72 330.338809,72 Z M401,30.3103448 L382.754545,46.7489655 L394.454545,71 L383.736364,71 L375.309091,52.5268966 L368.027273,58.8744828 L365.9,71 L356,71 L366.554545,12 L376.372727,12 L370.072727,47.4813793 L389.218182,30.3103448 L401,30.3103448 Z M402.347009,87 C399.374359,87 397.606838,86.6747504 396,86.1868759 L397.28547,78.3808845 C398.97265,78.9500713 400.418803,79.1940086 402.42735,79.1940086 C405.078632,79.1940086 407.97094,78.299572 410.140171,73.4208274 L411.666667,70.2496434 L403.150427,30 L413.353846,30 L417.451282,56.5891583 C417.77265,58.4593438 417.852991,60.0042796 417.852991,61.3865906 L418.013675,61.3865906 C418.415385,60.1669044 418.977778,58.703281 419.94188,56.5891583 L432.555556,30 L443,30 L419.620513,74.8844508 C413.755556,86.1055635 408.694017,87 402.347009,87 Z M231.085973,169 C217.728507,169 206,162.387097 206,143.354839 C206,127.951613 213.900452,109 236.217195,109 C248.108597,109 259.511312,114.080645 260,129.322581 L249.330317,130.854839 C249.167421,121.177419 242.977376,117.548387 235.891403,117.548387 C221.638009,117.548387 217.158371,132.145161 217.158371,142.870968 C217.158371,157.306452 224.488688,160.290323 231.167421,160.290323 C239.800905,160.290323 244.199095,155.048387 246.153846,147.306452 L256.497738,149.403226 C253.484163,160.451613 245.99095,169 231.085973,169 Z M275.173676,168 C267.301601,168 262,163.751908 262,156.538168 C262,153.171756 263.204909,150.125954 265.85571,147.881679 C268.667165,145.477099 273.406475,143.874046 279.832659,143.39313 L291.078479,142.51145 L291.319461,140.828244 C292.122734,135.458015 290.194879,132.812977 284.812951,132.812977 C279.672004,132.812977 276.699894,135.057252 275.896621,139.866412 L266.257346,139.866412 C267.381929,131.450382 273.486803,126 284.732623,126 C297.344008,126 302.645609,131.69084 300.5571,143.71374 L298.629245,154.774809 C297.745645,159.824427 297.504663,164.553435 297.745645,167.038168 L288.10637,167.038168 C288.10637,164.71374 288.267024,162.389313 288.588333,160.145038 C286.01786,165.274809 281.439205,168 275.173676,168 Z M278.32,162 C284,162 288.48,157.824242 289.6,151.521212 L290,149 L281.92,149.630303 C274.72,150.181818 272,152.781818 272,156.563636 C272,160.50303 274.8,162 278.32,162 Z M329,109 L318.718876,168 L309,168 L319.361446,109 L329,109 Z M350.338809,168 C342.010267,168 332,164.152672 332,149.965649 C332,139.465649 337.445585,126 353.782341,126 C362.831622,126 370.679671,130.167939 371,140.427481 L361.710472,141.950382 C361.470226,135.458015 357.626283,133.534351 353.622177,133.534351 C344.652977,133.534351 342.010267,142.992366 342.010267,149.885496 C342.010267,158.061069 346.494867,160.385496 350.73922,160.385496 C356.024641,160.385496 358.827515,156.618321 359.868583,151.80916 L368.837782,153.572519 C366.835729,162.068702 360.829569,168 350.338809,168 Z M390.096774,168 C384.370968,168 378,165.517578 378,155.988281 C378,154.146484 378.16129,152.304688 378.483871,150.142578 L382.596774,127 L392.274194,127 L388.241935,149.662109 C388,151.183594 387.83871,152.304688 387.83871,153.585937 C387.83871,158.871094 391.387097,160.232422 394.612903,160.232422 C401.629032,160.232422 403.564516,153.585937 404.612903,147.740234 L408.241935,127 L418,127 L410.822581,167.039062 L401.629032,167.039062 L403.080645,159.351562 C400.983871,164.316406 396.951613,168 390.096774,168 Z M444,109 L433.718876,168 L424,168 L434.361446,109 L444,109 Z M459.173676,168 C451.301601,168 446,163.751908 446,156.538168 C446,153.171756 447.204909,150.125954 449.85571,147.881679 C452.667165,145.477099 457.406475,143.874046 463.832659,143.39313 L475.078479,142.51145 L475.319461,140.828244 C476.122734,135.458015 474.194879,132.812977 468.812951,132.812977 C463.672004,132.812977 460.699894,135.057252 459.896621,139.866412 L450.257346,139.866412 C451.381929,131.450382 457.486803,126 468.732623,126 C481.344008,126 486.645609,131.69084 484.5571,143.71374 L482.629245,154.774809 C481.745645,159.824427 481.504663,164.553435 481.745645,167.038168 L472.10637,167.038168 C472.10637,164.71374 472.267024,162.389313 472.588333,160.145038 C470.01786,165.274809 465.439205,168 459.173676,168 Z M462.32,162 C468,162 472.48,157.824242 473.6,151.521212 L474,149 L465.92,149.630303 C458.72,150.181818 456,152.781818 456,156.563636 C456,160.50303 458.8,162 462.32,162 Z M493,134.01186 L494.287356,127.007907 L501.528736,127.007907 L503.298851,116.86425 L513.678161,113 L511.183908,127.007907 L521,127.007907 L519.712644,134.01186 L509.896552,134.01186 L506.597701,152.850079 C505.551724,158.565949 508.528736,159.612517 511.666667,159.612517 C512.712644,159.612517 513.91954,159.532012 515.287356,159.209991 L513.83908,167.180007 C511.666667,167.824049 509.977011,168.065564 507.724138,167.985059 C500.885057,167.904554 494.850575,164.44283 497.022989,152.206038 L500.241379,134.01186 L493,134.01186 Z M541.621514,168 C533.045817,168 523,164.232824 523,150.206107 C523,139.225191 528.962151,126 545.378486,126 C553.954183,126 564,129.767176 564,143.793893 C564,154.774809 558.037849,168 541.621514,168 Z M541.941406,161 C551.375,161 554,150.438596 554,143.807018 C554,135.374269 549.40625,133 545.058594,133 C535.542969,133 533,143.561404 533,150.192982 C533,158.625731 537.59375,161 541.941406,161 Z M583.636605,137.691406 C585.774536,131.285156 589.721485,126 597.122016,126 C598.27321,126 599.259947,126.080078 600,126.320313 L598.27321,135.609375 C597.3687,135.369141 596.299735,135.289063 595.066313,135.289063 C592.106101,135.289063 589.885942,135.929688 587.994695,137.451172 C585.034483,139.773438 583.307692,143.617188 582.238727,149.382813 L578.949602,167 L569,167 L576.318302,126.960938 L585.61008,126.960938 L583.636605,137.691406 Z" id="Ducky-Calculator" fill="#000000"></path>
        </g>
    </g>
</svg>